<svg width="20" height="19" viewBox="0 0 20 19" fill="none" xmlns="http://www.w3.org/2000/svg">
<path d="M11 13.26H10V9.50004H9M10 5.74004H10.01M19 9.50004C19 10.611 18.7672 11.7111 18.3149 12.7375C17.8626 13.764 17.1997 14.6966 16.364 15.4822C15.5282 16.2677 14.5361 16.8909 13.4442 17.3161C12.3522 17.7412 11.1819 17.96 10 17.96C8.8181 17.96 7.64778 17.7412 6.55585 17.3161C5.46392 16.8909 4.47177 16.2677 3.63604 15.4822C2.80031 14.6966 2.13738 13.764 1.68508 12.7375C1.23279 11.7111 1 10.611 1 9.50004C1 7.25631 1.94821 5.10447 3.63604 3.51792C5.32387 1.93136 7.61305 1.04004 10 1.04004C12.3869 1.04004 14.6761 1.93136 16.364 3.51792C18.0518 5.10447 19 7.25631 19 9.50004Z" stroke="#DEDEDE" stroke-width="2" stroke-linecap="round" stroke-linejoin="round"/>
</svg>
