<svg width="16" height="19" viewBox="0 0 16 19" fill="none" xmlns="http://www.w3.org/2000/svg">
<path d="M5 9.50004H11M5 13.26H11M13 17.96H3C2.46957 17.96 1.96086 17.762 1.58579 17.4094C1.21071 17.0568 1 16.5786 1 16.08V2.92004C1 2.42143 1.21071 1.94325 1.58579 1.59068C1.96086 1.23811 2.46957 1.04004 3 1.04004H8.586C8.8512 1.04009 9.10551 1.13916 9.293 1.31546L14.707 6.40462C14.8946 6.58086 14.9999 6.81991 15 7.0692V16.08C15 16.5786 14.7893 17.0568 14.4142 17.4094C14.0391 17.762 13.5304 17.96 13 17.96Z" stroke="#DEDEDE" stroke-width="2" stroke-linecap="round" stroke-linejoin="round"/>
</svg>
