<svg width="18" height="19" viewBox="0 0 18 19" fill="none" xmlns="http://www.w3.org/2000/svg">
<path d="M9 12.32V14.2M3 17.96H15C15.5304 17.96 16.0391 17.762 16.4142 17.4094C16.7893 17.0568 17 16.5786 17 16.08V10.44C17 9.94143 16.7893 9.46325 16.4142 9.11068C16.0391 8.75811 15.5304 8.56004 15 8.56004H3C2.46957 8.56004 1.96086 8.75811 1.58579 9.11068C1.21071 9.46325 1 9.94143 1 10.44V16.08C1 16.5786 1.21071 17.0568 1.58579 17.4094C1.96086 17.762 2.46957 17.96 3 17.96ZM13 8.56004V4.80004C13 3.80282 12.5786 2.84645 11.8284 2.14132C11.0783 1.43618 10.0609 1.04004 9 1.04004C7.93913 1.04004 6.92172 1.43618 6.17157 2.14132C5.42143 2.84645 5 3.80282 5 4.80004V8.56004H13Z" stroke="#DEDEDE" stroke-width="2" stroke-linecap="round" stroke-linejoin="round"/>
</svg>
