<svg width="27" height="27" viewBox="0 0 27 27" fill="none" xmlns="http://www.w3.org/2000/svg">
<path d="M13.5 2.98675C14.239 2.14897 15.2156 1.55607 16.2998 1.28697C17.384 1.01786 18.5245 1.08529 19.5695 1.4803C20.6144 1.87531 21.5143 2.57916 22.1494 3.49819C22.7845 4.41723 23.1247 5.50787 23.1247 6.625C23.1247 7.74213 22.7845 8.83277 22.1494 9.75181C21.5143 10.6708 20.6144 11.3747 19.5695 11.7697C18.5245 12.1647 17.384 12.2321 16.2998 11.963C15.2156 11.6939 14.239 11.101 13.5 10.2633M17.625 25.875H1.125V24.5C1.125 22.312 1.99419 20.2135 3.54137 18.6664C5.08854 17.1192 7.18696 16.25 9.375 16.25C11.563 16.25 13.6615 17.1192 15.2086 18.6664C16.7558 20.2135 17.625 22.312 17.625 24.5V25.875ZM17.625 25.875H25.875V24.5C25.8752 23.0517 25.4942 21.6289 24.7701 20.3746C24.0461 19.1203 23.0047 18.0786 21.7505 17.3544C20.4963 16.6302 19.0736 16.2489 17.6253 16.2488C16.177 16.2488 14.7542 16.63 13.5 17.3541M14.875 6.625C14.875 8.08369 14.2955 9.48264 13.2641 10.5141C12.2326 11.5455 10.8337 12.125 9.375 12.125C7.91631 12.125 6.51736 11.5455 5.48591 10.5141C4.45446 9.48264 3.875 8.08369 3.875 6.625C3.875 5.16631 4.45446 3.76736 5.48591 2.73591C6.51736 1.70446 7.91631 1.125 9.375 1.125C10.8337 1.125 12.2326 1.70446 13.2641 2.73591C14.2955 3.76736 14.875 5.16631 14.875 6.625Z" stroke="#CB8B4E" stroke-width="2" stroke-linecap="round" stroke-linejoin="round"/>
</svg>
