<svg width="24" height="23" viewBox="0 0 24 23" fill="none" xmlns="http://www.w3.org/2000/svg">
<path d="M12 2.25125C15.2062 2.25125 15.5859 2.26447 16.8469 2.31735C18.0187 2.36581 18.6516 2.55088 19.0734 2.7051C19.6312 2.90778 20.0344 3.15453 20.4516 3.54669C20.8734 3.94325 21.1312 4.31778 21.3469 4.84213C21.5109 5.23869 21.7078 5.83794 21.7594 6.93509C21.8156 8.12478 21.8297 8.48169 21.8297 11.4912C21.8297 14.505 21.8156 14.8619 21.7594 16.0472C21.7078 17.1488 21.5109 17.7436 21.3469 18.1402C21.1312 18.6645 20.8687 19.0435 20.4516 19.4356C20.0297 19.8322 19.6312 20.0745 19.0734 20.2772C18.6516 20.4314 18.0141 20.6165 16.8469 20.665C15.5812 20.7178 15.2016 20.7311 12 20.7311C8.79375 20.7311 8.41406 20.7178 7.15312 20.665C5.98125 20.6165 5.34844 20.4314 4.92656 20.2772C4.36875 20.0745 3.96562 19.8278 3.54844 19.4356C3.12656 19.0391 2.86875 18.6645 2.65312 18.1402C2.48906 17.7436 2.29219 17.1444 2.24062 16.0472C2.18437 14.8575 2.17031 14.5006 2.17031 11.4912C2.17031 8.47728 2.18437 8.12038 2.24062 6.93509C2.29219 5.83353 2.48906 5.23869 2.65312 4.84213C2.86875 4.31778 3.13125 3.93885 3.54844 3.54669C3.97031 3.15013 4.36875 2.90778 4.92656 2.7051C5.34844 2.55088 5.98594 2.36581 7.15312 2.31735C8.41406 2.26447 8.79375 2.25125 12 2.25125ZM12 0.219971C8.74219 0.219971 8.33437 0.233189 7.05469 0.286064C5.77969 0.338939 4.90312 0.532814 4.14375 0.810408C3.35156 1.10122 2.68125 1.48456 2.01562 2.11466C1.34531 2.74035 0.9375 3.37044 0.628125 4.11069C0.332812 4.82891 0.126562 5.64847 0.0703125 6.84697C0.0140625 8.05428 0 8.43763 0 11.5C0 14.5623 0.0140625 14.9457 0.0703125 16.1486C0.126562 17.3471 0.332812 18.171 0.628125 18.8848C0.9375 19.6295 1.34531 20.2596 2.01562 20.8853C2.68125 21.511 3.35156 21.8987 4.13906 22.1851C4.90312 22.4627 5.775 22.6566 7.05 22.7095C8.32969 22.7623 8.7375 22.7756 11.9953 22.7756C15.2531 22.7756 15.6609 22.7623 16.9406 22.7095C18.2156 22.6566 19.0922 22.4627 19.8516 22.1851C20.6391 21.8987 21.3094 21.511 21.975 20.8853C22.6406 20.2596 23.0531 19.6295 23.3578 18.8893C23.6531 18.171 23.8594 17.3515 23.9156 16.153C23.9719 14.9501 23.9859 14.5667 23.9859 11.5044C23.9859 8.44203 23.9719 8.05869 23.9156 6.85578C23.8594 5.65728 23.6531 4.83331 23.3578 4.1195C23.0625 3.37044 22.6547 2.74035 21.9844 2.11466C21.3187 1.48897 20.6484 1.10122 19.8609 0.814814C19.0969 0.537221 18.225 0.343346 16.95 0.290471C15.6656 0.233189 15.2578 0.219971 12 0.219971Z" fill="#DEDEDE"/>
</svg>
